<?xml version="1.0" encoding="UTF-8" standalone="no"?>
<svg width="79px" height="11px" viewBox="0 0 79 11" version="1.1" xmlns="http://www.w3.org/2000/svg" xmlns:xlink="http://www.w3.org/1999/xlink" xmlns:sketch="http://www.bohemiancoding.com/sketch/ns">
    <!-- Generator: Sketch 3.4.4 (17249) - http://www.bohemiancoding.com/sketch -->
    <title>FRONTEER</title>
    <desc>Created with Sketch.</desc>
    <defs></defs>
    <g id="Page-1" stroke="none" stroke-width="1" fill="none" fill-rule="evenodd" sketch:type="MSPage">
        <path d="M0.561200226,1.4414267 L0.561200226,4.82361857 L4.47655064,4.82361857 L4.47655064,5.33488013 L0.561200226,5.33488013 L0.561200226,10.0083352 L0,10.0083352 L0,0.936719775 L5.11605788,0.936719775 L5.11605788,1.4414267 L0.561200226,1.4414267 Z M14.8936599,10.0083352 L12.570552,6.03622612 L10.3518534,6.03622612 L10.3518534,10.0083352 L9.79065317,10.0083352 L9.79065317,0.936719775 L12.1137611,0.936719775 C12.6010071,0.936719775 13.027341,0.981509336 13.3927756,1.0710898 C13.7582101,1.16067027 14.0638219,1.30377837 14.3096201,1.50041842 C14.5554183,1.69705846 14.7392205,1.95268669 14.861032,2.26731076 C14.9828435,2.58193483 15.0437483,2.96428474 15.0437483,3.41437196 C15.0437483,3.80328227 15.0045952,4.13975019 14.9262878,4.42378581 C14.8479804,4.70782143 14.7294335,4.95143294 14.5706435,5.15462766 C14.4118535,5.35782237 14.2128251,5.52277904 13.9735525,5.64950263 C13.7342799,5.77622621 13.4536826,5.8723599 13.1317522,5.93790659 L15.5918974,10.0083352 L14.8936599,10.0083352 Z M14.4303434,3.40126269 C14.4303434,3.0691595 14.3933655,2.779666 14.3194085,2.5327735 C14.2454515,2.28588099 14.1192915,2.0815969 13.9409246,1.91991509 C13.7625578,1.75823327 13.5243763,1.63806616 13.2263732,1.55941014 C12.92837,1.48075412 12.5531527,1.4414267 12.1007099,1.4414267 L10.3518534,1.4414267 L10.3518534,5.52496456 L12.1007099,5.52496456 C12.5488023,5.52496456 12.9218444,5.48563714 13.2198476,5.40698112 C13.5178507,5.3283251 13.7571198,5.20378827 13.9376618,5.0333669 C14.1182039,4.86294553 14.2454515,4.64336744 14.3194085,4.37462604 C14.3933655,4.10588465 14.4303434,3.78143344 14.4303434,3.40126269 L14.4303434,3.40126269 Z M26.5963092,5.47252747 C26.5963092,6.19791075 26.5354043,6.85227531 26.4135928,7.43564078 C26.2917813,8.01900624 26.0949282,8.51496869 25.8230275,8.92354301 C25.5511268,9.33211733 25.195486,9.64673668 24.7560945,9.86741051 C24.316703,10.0880843 23.7772601,10.1984196 23.1377496,10.1984196 C22.5025896,10.1984196 21.9653219,10.0869919 21.5259304,9.86413319 C21.0865389,9.64127447 20.7298105,9.32556269 20.4557346,8.91698838 C20.1816587,8.50841406 19.983718,8.01245161 19.8619065,7.42908614 C19.7400949,6.84572067 19.6791901,6.19354097 19.6791901,5.47252747 C19.6791901,4.75588375 19.7400949,4.10588891 19.8619065,3.52252344 C19.983718,2.93915797 20.1816587,2.44210309 20.4557346,2.03134389 C20.7298105,1.62058468 21.0865389,1.30378047 21.5259304,1.08092175 C21.9653219,0.858063036 22.5025896,0.746635348 23.1377496,0.746635348 C23.7772601,0.746635348 24.316703,0.856970608 24.7560945,1.07764444 C25.195486,1.29831826 25.5511268,1.61293762 25.8230275,2.02151193 C26.0949282,2.43008625 26.2917813,2.9260487 26.4135928,3.50941417 C26.5354043,4.09277964 26.5963092,4.74714419 26.5963092,5.47252747 L26.5963092,5.47252747 Z M25.9829043,5.47252747 C25.9829043,4.80395132 25.9339629,4.20967032 25.8360786,3.68966664 C25.7381944,3.16966297 25.5772316,2.73159922 25.3531854,2.37546225 C25.1291392,2.01932527 24.8354909,1.74840305 24.4722316,1.56268746 C24.1089722,1.37697186 23.6641494,1.28411545 23.1377496,1.28411545 C22.6069995,1.28411545 22.161089,1.374787 21.8000049,1.55613282 C21.4389208,1.73747864 21.14636,2.00512358 20.9223139,2.35907566 C20.6982677,2.71302774 20.5373049,3.15109149 20.4394206,3.67328005 C20.3415364,4.19546862 20.292595,4.79521176 20.292595,5.47252747 C20.292595,6.13236407 20.3415364,6.72227536 20.4394206,7.24227903 C20.5373049,7.76228271 20.6971801,8.20143889 20.9190511,8.55976075 C21.140922,8.91808261 21.4334828,9.19118968 21.7967421,9.37909017 C22.1600015,9.56699066 22.6069995,9.66093949 23.1377496,9.66093949 C23.6641494,9.66093949 24.1089722,9.56808309 24.4722316,9.38236749 C24.8354909,9.19665189 25.1291392,8.92463724 25.3531854,8.56631538 C25.5772316,8.20799352 25.7381944,7.76992977 25.8360786,7.25211098 C25.9339629,6.7342922 25.9829043,6.14110363 25.9829043,5.47252747 L25.9829043,5.47252747 Z M36.9677393,10.0083352 L32.0866025,1.59218332 L32.0866025,10.0083352 L31.5254022,10.0083352 L31.5254022,0.936719775 L32.3280491,0.936719775 L37.0460463,9.07102231 L37.0460463,0.936719775 L37.6072466,0.936719775 L37.6072466,10.0083352 L36.9677393,10.0083352 Z M45.6229409,1.4414267 L45.6229409,10.0083352 L45.0617407,10.0083352 L45.0617407,1.4414267 L41.8511533,1.4414267 L41.8511533,0.936719775 L48.8270026,0.936719775 L48.8270026,1.4414267 L45.6229409,1.4414267 Z M53.0709094,10.0083352 L53.0709094,0.936719775 L58.2456975,0.936719775 L58.2456975,1.4414267 L53.6321096,1.4414267 L53.6321096,4.90882883 L57.6127159,4.90882883 L57.6127159,5.42009039 L53.6321096,5.42009039 L53.6321096,9.49707361 L58.2456975,9.49707361 L58.2456975,10.0083352 L53.0709094,10.0083352 Z M63.1552138,10.0083352 L63.1552138,0.936719775 L68.330002,0.936719775 L68.330002,1.4414267 L63.7164141,1.4414267 L63.7164141,4.90882883 L67.6970203,4.90882883 L67.6970203,5.42009039 L63.7164141,5.42009039 L63.7164141,9.49707361 L68.330002,9.49707361 L68.330002,10.0083352 L63.1552138,10.0083352 Z M78.342525,10.0083352 L76.0194171,6.03622612 L73.8007185,6.03622612 L73.8007185,10.0083352 L73.2395183,10.0083352 L73.2395183,0.936719775 L75.5626262,0.936719775 C76.0498723,0.936719775 76.4762061,0.981509336 76.8416407,1.0710898 C77.2070752,1.16067027 77.512687,1.30377837 77.7584852,1.50041842 C78.0042835,1.69705846 78.1880856,1.95268669 78.3098971,2.26731076 C78.4317086,2.58193483 78.4926134,2.96428474 78.4926134,3.41437196 C78.4926134,3.80328227 78.4534603,4.13975019 78.3751529,4.42378581 C78.2968455,4.70782143 78.1782986,4.95143294 78.0195086,5.15462766 C77.8607186,5.35782237 77.6616903,5.52277904 77.4224177,5.64950263 C77.183145,5.77622621 76.9025477,5.8723599 76.5806173,5.93790659 L79.0407625,10.0083352 L78.342525,10.0083352 Z M77.8792085,3.40126269 C77.8792085,3.0691595 77.8422306,2.779666 77.7682736,2.5327735 C77.6943166,2.28588099 77.5681566,2.0815969 77.3897897,1.91991509 C77.2114229,1.75823327 76.9732414,1.63806616 76.6752383,1.55941014 C76.3772351,1.48075412 76.0020178,1.4414267 75.549575,1.4414267 L73.8007185,1.4414267 L73.8007185,5.52496456 L75.549575,5.52496456 C75.9976674,5.52496456 76.3707095,5.48563714 76.6687127,5.40698112 C76.9667159,5.3283251 77.2059849,5.20378827 77.3865269,5.0333669 C77.567069,4.86294553 77.6943166,4.64336744 77.7682736,4.37462604 C77.8422306,4.10588465 77.8792085,3.78143344 77.8792085,3.40126269 L77.8792085,3.40126269 Z" id="FRONTEER" fill="#FFFFFF" sketch:type="MSShapeGroup"></path>
    </g>
</svg>