<?xml version="1.0" encoding="UTF-8" standalone="no"?>
<svg width="79px" height="52px" viewBox="0 0 79 52" version="1.1" xmlns="http://www.w3.org/2000/svg" xmlns:xlink="http://www.w3.org/1999/xlink" xmlns:sketch="http://www.bohemiancoding.com/sketch/ns">
    <!-- Generator: Sketch 3.4.4 (17249) - http://www.bohemiancoding.com/sketch -->
    <title>fronteerMark + FRONTEER</title>
    <desc>Created with Sketch.</desc>
    <defs>
        <linearGradient x1="100%" y1="13.206811%" x2="-13.0340527%" y2="90.0241246%" id="linearGradient-1">
            <stop stop-color="#B4ED50" offset="0%"></stop>
            <stop stop-color="#429321" offset="100%"></stop>
        </linearGradient>
    </defs>
    <g id="Page-1" stroke="none" stroke-width="1" fill="none" fill-rule="evenodd" sketch:type="MSPage">
        <g id="fronteerMark-+-FRONTEER" sketch:type="MSLayerGroup">
            <g id="fronteerMark" transform="translate(26.020381, 0.000000)" sketch:type="MSShapeGroup">
                <path d="M0,14.7075475 L0,7.62536214 C0,15.1701293 16.9434585,12.3310048 16.9434585,12.331005 L16.9434585,19.3603611 C12.682008,19.8744072 0,21.4247614 0,14.7075475 Z M0,19.0431043 L0,19.1939699 L0,26.2060542 C0,29.9268377 3.89115448,30.7124519 8.08696264,30.9410922 L8.08696436,23.983281 C3.98316196,23.7001645 0,22.7012314 0,19.0431043 Z" id="thermalBack" fill="#2B3838"></path>
                <path d="M0,19.2699467 L0,26.3521321 C0,20.2935208 18.224145,19.3422898 18.224145,19.3422896 L18.224145,11.9073653 C18.2241456,11.9073653 0,12.5527328 0,19.2699467 Z M0,7.56948498 L0,14.8263315 C0,8.61830259 23.8729426,7.58642246 23.9191904,7.58642225 L26.8966166,3.2489502 L23.9191904,0 C23.8729426,-1.02393477e-08 0,0.686610974 0,7.56948498 Z" id="thermalFront" fill="url(#linearGradient-1)"></path>
            </g>
            <path d="M0.561200226,42.4414267 L0.561200226,45.8236186 L4.47655064,45.8236186 L4.47655064,46.3348801 L0.561200226,46.3348801 L0.561200226,51.0083352 L0,51.0083352 L0,41.9367198 L5.11605788,41.9367198 L5.11605788,42.4414267 L0.561200226,42.4414267 Z M14.8936599,51.0083352 L12.570552,47.0362261 L10.3518534,47.0362261 L10.3518534,51.0083352 L9.79065317,51.0083352 L9.79065317,41.9367198 L12.1137611,41.9367198 C12.6010071,41.9367198 13.027341,41.9815093 13.3927756,42.0710898 C13.7582101,42.1606703 14.0638219,42.3037784 14.3096201,42.5004184 C14.5554183,42.6970585 14.7392205,42.9526867 14.861032,43.2673108 C14.9828435,43.5819348 15.0437483,43.9642847 15.0437483,44.414372 C15.0437483,44.8032823 15.0045952,45.1397502 14.9262878,45.4237858 C14.8479804,45.7078214 14.7294335,45.9514329 14.5706435,46.1546277 C14.4118535,46.3578224 14.2128251,46.522779 13.9735525,46.6495026 C13.7342799,46.7762262 13.4536826,46.8723599 13.1317522,46.9379066 L15.5918974,51.0083352 L14.8936599,51.0083352 Z M14.4303434,44.4012627 C14.4303434,44.0691595 14.3933655,43.779666 14.3194085,43.5327735 C14.2454515,43.285881 14.1192915,43.0815969 13.9409246,42.9199151 C13.7625578,42.7582333 13.5243763,42.6380662 13.2263732,42.5594101 C12.92837,42.4807541 12.5531527,42.4414267 12.1007099,42.4414267 L10.3518534,42.4414267 L10.3518534,46.5249646 L12.1007099,46.5249646 C12.5488023,46.5249646 12.9218444,46.4856371 13.2198476,46.4069811 C13.5178507,46.3283251 13.7571198,46.2037883 13.9376618,46.0333669 C14.1182039,45.8629455 14.2454515,45.6433674 14.3194085,45.374626 C14.3933655,45.1058846 14.4303434,44.7814334 14.4303434,44.4012627 L14.4303434,44.4012627 Z M26.5963092,46.4725275 C26.5963092,47.1979108 26.5354043,47.8522753 26.4135928,48.4356408 C26.2917813,49.0190062 26.0949282,49.5149687 25.8230275,49.923543 C25.5511268,50.3321173 25.195486,50.6467367 24.7560945,50.8674105 C24.316703,51.0880843 23.7772601,51.1984196 23.1377496,51.1984196 C22.5025896,51.1984196 21.9653219,51.0869919 21.5259304,50.8641332 C21.0865389,50.6412745 20.7298105,50.3255627 20.4557346,49.9169884 C20.1816587,49.5084141 19.983718,49.0124516 19.8619065,48.4290861 C19.7400949,47.8457207 19.6791901,47.193541 19.6791901,46.4725275 C19.6791901,45.7558838 19.7400949,45.1058889 19.8619065,44.5225234 C19.983718,43.939158 20.1816587,43.4421031 20.4557346,43.0313439 C20.7298105,42.6205847 21.0865389,42.3037805 21.5259304,42.0809218 C21.9653219,41.858063 22.5025896,41.7466353 23.1377496,41.7466353 C23.7772601,41.7466353 24.316703,41.8569706 24.7560945,42.0776444 C25.195486,42.2983183 25.5511268,42.6129376 25.8230275,43.0215119 C26.0949282,43.4300863 26.2917813,43.9260487 26.4135928,44.5094142 C26.5354043,45.0927796 26.5963092,45.7471442 26.5963092,46.4725275 L26.5963092,46.4725275 Z M25.9829043,46.4725275 C25.9829043,45.8039513 25.9339629,45.2096703 25.8360786,44.6896666 C25.7381944,44.169663 25.5772316,43.7315992 25.3531854,43.3754622 C25.1291392,43.0193253 24.8354909,42.7484031 24.4722316,42.5626875 C24.1089722,42.3769719 23.6641494,42.2841155 23.1377496,42.2841155 C22.6069995,42.2841155 22.161089,42.374787 21.8000049,42.5561328 C21.4389208,42.7374786 21.14636,43.0051236 20.9223139,43.3590757 C20.6982677,43.7130277 20.5373049,44.1510915 20.4394206,44.6732801 C20.3415364,45.1954686 20.292595,45.7952118 20.292595,46.4725275 C20.292595,47.1323641 20.3415364,47.7222754 20.4394206,48.242279 C20.5373049,48.7622827 20.6971801,49.2014389 20.9190511,49.5597607 C21.140922,49.9180826 21.4334828,50.1911897 21.7967421,50.3790902 C22.1600015,50.5669907 22.6069995,50.6609395 23.1377496,50.6609395 C23.6641494,50.6609395 24.1089722,50.5680831 24.4722316,50.3823675 C24.8354909,50.1966519 25.1291392,49.9246372 25.3531854,49.5663154 C25.5772316,49.2079935 25.7381944,48.7699298 25.8360786,48.252111 C25.9339629,47.7342922 25.9829043,47.1411036 25.9829043,46.4725275 L25.9829043,46.4725275 Z M36.9677393,51.0083352 L32.0866025,42.5921833 L32.0866025,51.0083352 L31.5254022,51.0083352 L31.5254022,41.9367198 L32.3280491,41.9367198 L37.0460463,50.0710223 L37.0460463,41.9367198 L37.6072466,41.9367198 L37.6072466,51.0083352 L36.9677393,51.0083352 Z M45.6229409,42.4414267 L45.6229409,51.0083352 L45.0617407,51.0083352 L45.0617407,42.4414267 L41.8511533,42.4414267 L41.8511533,41.9367198 L48.8270026,41.9367198 L48.8270026,42.4414267 L45.6229409,42.4414267 Z M53.0709094,51.0083352 L53.0709094,41.9367198 L58.2456975,41.9367198 L58.2456975,42.4414267 L53.6321096,42.4414267 L53.6321096,45.9088288 L57.6127159,45.9088288 L57.6127159,46.4200904 L53.6321096,46.4200904 L53.6321096,50.4970736 L58.2456975,50.4970736 L58.2456975,51.0083352 L53.0709094,51.0083352 Z M63.1552138,51.0083352 L63.1552138,41.9367198 L68.330002,41.9367198 L68.330002,42.4414267 L63.7164141,42.4414267 L63.7164141,45.9088288 L67.6970203,45.9088288 L67.6970203,46.4200904 L63.7164141,46.4200904 L63.7164141,50.4970736 L68.330002,50.4970736 L68.330002,51.0083352 L63.1552138,51.0083352 Z M78.342525,51.0083352 L76.0194171,47.0362261 L73.8007185,47.0362261 L73.8007185,51.0083352 L73.2395183,51.0083352 L73.2395183,41.9367198 L75.5626262,41.9367198 C76.0498723,41.9367198 76.4762061,41.9815093 76.8416407,42.0710898 C77.2070752,42.1606703 77.512687,42.3037784 77.7584852,42.5004184 C78.0042835,42.6970585 78.1880856,42.9526867 78.3098971,43.2673108 C78.4317086,43.5819348 78.4926134,43.9642847 78.4926134,44.414372 C78.4926134,44.8032823 78.4534603,45.1397502 78.3751529,45.4237858 C78.2968455,45.7078214 78.1782986,45.9514329 78.0195086,46.1546277 C77.8607186,46.3578224 77.6616903,46.522779 77.4224177,46.6495026 C77.183145,46.7762262 76.9025477,46.8723599 76.5806173,46.9379066 L79.0407625,51.0083352 L78.342525,51.0083352 Z M77.8792085,44.4012627 C77.8792085,44.0691595 77.8422306,43.779666 77.7682736,43.5327735 C77.6943166,43.285881 77.5681566,43.0815969 77.3897897,42.9199151 C77.2114229,42.7582333 76.9732414,42.6380662 76.6752383,42.5594101 C76.3772351,42.4807541 76.0020178,42.4414267 75.549575,42.4414267 L73.8007185,42.4414267 L73.8007185,46.5249646 L75.549575,46.5249646 C75.9976674,46.5249646 76.3707095,46.4856371 76.6687127,46.4069811 C76.9667159,46.3283251 77.2059849,46.2037883 77.3865269,46.0333669 C77.567069,45.8629455 77.6943166,45.6433674 77.7682736,45.374626 C77.8422306,45.1058846 77.8792085,44.7814334 77.8792085,44.4012627 L77.8792085,44.4012627 Z" id="FRONTEER" fill="#FFFFFF" sketch:type="MSShapeGroup"></path>
        </g>
    </g>
</svg>