<?xml version="1.0" encoding="UTF-8" standalone="no"?>
<svg width="976px" height="1112px" viewBox="0 0 976 1112" version="1.1" xmlns="http://www.w3.org/2000/svg" xmlns:xlink="http://www.w3.org/1999/xlink" xmlns:sketch="http://www.bohemiancoding.com/sketch/ns">
    <!-- Generator: Sketch 3.3.2 (12043) - http://www.bohemiancoding.com/sketch -->
    <title>fronteerMark</title>
    <desc>Created with Sketch.</desc>
    <defs>
        <linearGradient x1="100%" y1="13.206811%" x2="-13.0340527%" y2="90.0241246%" id="linearGradient-1">
            <stop stop-color="#B4ED50" offset="0%"></stop>
            <stop stop-color="#429321" offset="100%"></stop>
        </linearGradient>
    </defs>
    <g id="1536" stroke="none" stroke-width="1" fill="none" fill-rule="evenodd" sketch:type="MSPage">
        <g sketch:type="MSArtboardGroup" transform="translate(-108.000000, -286.000000)" id="screen">
            <g sketch:type="MSLayerGroup">
                <g id="content" transform="translate(0.000000, 40.000000)" sketch:type="MSShapeGroup">
                    <g id="images" transform="translate(0.000000, 246.000000)">
                        <g id="mainBrandingBlock" transform="translate(108.000000, 0.000000)">
                            <g id="fronteerMark">
                                <path d="M0,528.510707 L0,274.014789 C0,545.133425 614.411327,443.110452 614.411327,443.110459 L614.411327,695.707975 C459.880687,714.180046 0,769.891496 0,528.510707 Z M0,684.307461 L0,689.728764 L0,941.705624 C0,1075.41071 141.102797,1103.64149 293.253083,1111.8576 L293.253146,861.831026 C144.439214,851.657331 0,815.761012 0,684.307461 Z" id="thermalBack" fill="#2B3838"></path>
                                <path d="M0,692.458964 L0,946.954882 C0,729.240753 660.852159,695.05859 660.852159,695.058583 L660.852159,427.887113 C660.85218,427.887112 0,451.078175 0,692.458964 Z M0,272.006862 L0,532.779169 C0,309.695766 865.6914,272.615505 867.368459,272.615497 L975.337232,116.749918 L867.368459,0 C865.6914,-3.6794747e-07 0,24.6731313 0,272.006862 Z" id="thermalFront" fill="url(#linearGradient-1)"></path>
                            </g>
                        </g>
                    </g>
                </g>
            </g>
        </g>
    </g>
</svg>